<?xml version="1.0" encoding="iso-8859-1"?>
<!-- Uploaded to: SVG Repo, www.svgrepo.com, Generator: SVG Repo Mixer Tools -->
<svg fill="#000000" height="800px" width="800px" version="1.1" id="Capa_1" xmlns="http://www.w3.org/2000/svg" xmlns:xlink="http://www.w3.org/1999/xlink" 
	 viewBox="0 0 612 612" xml:space="preserve">
<g>
	<g>
		<g>
			<path d="M471.554,199.844V88.714c0-6.4-3.24-12.368-8.608-15.852c-5.368-3.486-12.136-4.018-17.981-1.413l-158.131,70.427
				c-6.682,2.975-10.758,9.351-11.149,16.178c-0.039-0.359-0.065,3.47-0.065,3.47v216.07c-10.519-5.477-22.554-8.386-35.265-8.386
				c-24.951,0-50.314,11.054-69.585,30.327c-36.209,36.213-40.474,90.868-9.509,121.835c13.422,13.423,31.98,20.815,52.253,20.815
				c24.95,0,50.311-11.053,69.585-30.324c17.049-17.049,27.665-38.715,29.894-61.007c0.345-3.464,0.43-10.618,0.43-10.813V282.393
				l146.905-65.274C467.155,214.085,471.554,207.315,471.554,199.844z M275.378,447.092c-1.362,13.634-8.115,27.142-19.01,38.037
				c-12.236,12.236-27.858,19.253-42.854,19.253c-7.198,0-17.471-1.69-25.523-9.744c-16.227-16.228-11.96-46.901,9.511-68.374
				c12.236-12.236,27.854-19.254,42.854-19.254c7.195,0,17.468,1.69,25.522,9.747C273.225,424.103,276.599,434.877,275.378,447.092z
				 M433.751,187.56l-120.328,53.466v-69.611l120.328-53.59V187.56z"/>
			<path d="M554.06,0H57.943C25.993,0,0.001,25.993,0.001,57.942v496.116c0,31.95,25.993,57.942,57.942,57.942h496.116
				c31.948,0,57.941-25.993,57.941-57.942V57.942C612.001,25.993,586.008,0,554.06,0z M574.198,554.058
				c0,11.105-9.032,20.139-20.138,20.139H57.943c-11.105,0-20.139-9.035-20.139-20.139V57.942c0-11.105,9.035-20.139,20.139-20.139
				h496.116c11.106,0,20.138,9.035,20.138,20.139v496.116H574.198z"/>
			<path d="M97.052,152.103h84.401c10.438,0,18.901-8.462,18.901-18.901c0-10.438-8.463-18.901-18.901-18.901H97.052
				c-10.438,0-18.901,8.463-18.901,18.901C78.15,143.641,86.612,152.103,97.052,152.103z"/>
			<path d="M200.352,223.326c0-10.438-8.463-18.901-18.901-18.901H97.052c-10.438,0-18.901,8.463-18.901,18.901
				c0,10.44,8.463,18.901,18.901,18.901h84.401C191.889,242.228,200.352,233.766,200.352,223.326z"/>
			<path d="M514.952,369.772h-84.404c-10.438,0-18.901,8.463-18.901,18.901s8.463,18.901,18.901,18.901h84.404
				c10.438,0,18.901-8.463,18.901-18.901S525.39,369.772,514.952,369.772z"/>
			<path d="M514.952,459.897h-84.404c-10.438,0-18.901,8.463-18.901,18.901c0,10.438,8.463,18.901,18.901,18.901h84.404
				c10.438,0,18.901-8.463,18.901-18.901C533.853,468.361,525.39,459.897,514.952,459.897z"/>
		</g>
	</g>
</g>
</svg>